<?xml version="1.0" standalone="no"?>
<!DOCTYPE svg PUBLIC "-//W3C//DTD SVG 1.0//EN" "http://www.w3.org/TR/2001/REC-SVG-20010904/DTD/svg10.dtd">
<svg xmlns="http://www.w3.org/2000/svg" xmlns:xlink="http://www.w3.org/1999/xlink" id="body_1" width="1991" height="1991">

<defs>
    <clipPath  id="1">

    <path id=""  clip-rule="evenodd" transform="matrix(1 0 0 1 0 0)"  d="M0 1493L0 -0.29748535L0 -0.29748535L1493.25 -0.29748535L1493.25 -0.29748535L1493.25 1493L1493.25 1493L0 1493z" />    </clipPath>
    <clipPath  id="2">

    <path id=""  clip-rule="evenodd" transform="matrix(1 0 0 1 0 0)"  d="M0 -0.29748535L1494 -0.29748535L1494 -0.29748535L1494 1493.7025L1494 1493.7025L0 1493.7025z" />    </clipPath>
</defs>

<g transform="matrix(1.3333 0 0 1.3333 0 0)">
	<g clip-path="url(#1)" >
		<g clip-path="url(#2)" >
    <path id=""  transform="matrix(1 0 0 -1 0 1493)"  d="M1493.25 746.6025C 1493.25 1158.9385 1158.938 1493.2975 746.551 1493.2975C 334.262 1493.2975 0 1158.9385 0 746.6025C 0 334.26648 334.262 0.00048828125 746.551 0.00048828125C 1158.938 0.00048828125 1493.25 334.26648 1493.25 746.6025" stroke="none" fill="#F40009" fill-rule="nonzero" />
    <path id=""  transform="matrix(1 0 0 -1 0 1493)"  d="M662.988 547.41046C 630.887 570.0395 591.781 580.02747 556.223 578.4695C 520.285 577.0945 504.141 550.3445 504.141 550.3445C 487.949 578.4695 455.941 595.9385 406.371 595.4655C 326.406 594.4695 247.102 557.5395 184.227 557.5395C 123.859 557.5395 79.871 595.4655 81.34 662.7895C 83.898 780.7315 183.563 887.0205 258.086 934.9845C 300.883 962.4925 336.773 970.6845 360.258 967.9845C 377.348 966.04346 397.898 946.3015 384.973 917.2745C 365.938 874.4775 339.566 878.16846 340.516 898.4815C 341.082 911.7815 349.887 920.0705 356.516 924.66046C 360.777 927.5985 368.211 928.3525 372 928.44946C 375.789 931.62146 378.676 955.0595 347.996 947.29346C 317.313 939.52747 280.336 909.5125 245.16 870.5905C 209.934 831.7235 155.105 758.0515 141.613 680.8755C 135.316 644.98846 139.531 579.6495 224.422 580.4065C 296.387 581.0245 402.582 628.41846 500.117 627.66046C 538.043 627.3285 570.996 617.1025 596.703 601.1925C 621.988 585.5705 652.289 562.8915 662.988 547.41046M686.094 761.36346L700.816 761.36346C 700.816 761.36346 626.957 654.50446 585.105 659.28546C 561.809 661.9385 568.723 690.8675 568.723 690.8675C 568.723 690.8675 535.863 652.4225 505.895 660.0905C 478.621 667.1455 496.188 712.5515 496.188 712.5515C 493.109 711.1805 434.023 644.6095 392.547 660.5675C 349.227 677.2315 371.668 733.00446 379.953 749.8595C 386.914 763.9225 394.68 777.65247 394.68 777.65247C 394.68 777.65247 387.957 775.7585 383.883 774.8595C 379.715 773.86346 373.418 772.6805 373.418 772.6805C 373.418 772.6805 352.918 739.3015 340.324 722.5865C 327.824 706.0635 274.465 648.6375 243.074 660.0905C 211.637 671.50446 219.402 715.4385 237.109 750.37946C 265.707 807.1495 333.602 876.65247 374.508 866.33246C 415.84 855.7745 381.66 788.6845 381.66 788.6845C 381.66 788.6845 389.848 787.5475 409.543 801.1375C 437.953 820.4535 475.355 872.4845 515.934 866.4265C 534.914 863.5865 552.719 843.9845 528.477 806.95746C 520.715 795.02747 507.691 784.3285 497.656 794.9345C 491.453 801.32446 496.852 813.3055 503.383 821.4455C 512.57 833.0475 525.258 831.5315 525.258 831.5315C 525.258 831.5315 531.98 846.87146 514.984 846.6335C 501.16 846.3995 466.313 814.1565 446.57 781.62946C 428.484 751.8955 401.117 700.99646 428.625 689.91846C 453.813 679.73846 501.773 736.7425 524.027 766.5705C 546.234 796.3995 596.801 864.2035 639.219 866.8525C 653.805 867.8955 662.563 854.5905 662.563 854.5905L662.563 854.5905L667.484 862.3565L667.484 862.3565L709.863 862.3565C 709.863 862.3565 629.941 728.7425 623.691 718.61346C 618.766 710.7035 612.281 692.90247 630.32 702.8915C 648.453 712.9305 686.094 761.36346 686.094 761.36346M356.898 774.8595C 356.184 775.1925 345.484 778.1725 335.117 784.9455C 324.699 791.5245 319.871 801.41846 319.492 802.12946C 319.113 802.8875 318.641 802.2705 318.262 801.7035C 317.836 801.1845 315.609 798.2505 300.461 776.04346C 285.309 753.8835 262.961 708.3835 283.984 700.6175C 297.383 695.5555 319.965 719.2275 332.227 734.8525C 343.543 749.3365 357.039 771.6885 357.652 772.9655C 358.176 774.2895 357.652 774.62146 356.898 774.8595M373.703 845.87946C 362.578 854.3565 334.266 834.7035 334.172 814.53546C 333.98 793.8445 359.688 787.9735 363.004 787.83246C 363.004 787.83246 365.938 787.12146 367.074 789.48846C 367.785 791.0515 371.289 797.48846 375.219 807.6725C 379.102 817.9925 384.074 838.0205 373.703 845.87946M589.887 734.70746C 607.023 758.1925 654.23 840.52747 654.23 840.52747C 654.23 840.52747 653.473 846.3055 647.98 846.5905C 641.398 846.82446 630.605 844.6925 608.871 817.4695C 587.141 790.3405 570.426 768.7035 558.164 746.2625C 544.719 721.7815 538.848 704.5475 546.563 699.7195C 548.695 698.48846 552.008 698.3485 554.66 698.9145C 559.68 700.2425 566.258 705.2155 575.301 715.6765C 579.516 720.5085 584.25 726.9455 589.887 734.70746M780.5 862.2115L740.258 862.2115L740.258 862.2115L717.531 825.2815L717.531 825.2815L757.777 825.2815zM1375.168 928.3055C 1345.48 909.1335 1304.148 891.8525 1264.52 895.6845C 1254.484 885.2235 1243.785 873.2425 1232.941 860.1765C 1301.781 846.5905 1361.914 889.15247 1393.965 925.5165C 1413.945 948.1455 1423.746 968.41046 1423.746 968.41046C 1423.746 968.41046 1404.668 947.29346 1375.168 928.3055M1257.371 615.87146C 1251.594 606.7815 1245.156 589.3095 1264 600.1495C 1286.914 613.5515 1319.586 663.07446 1319.586 663.07446L1319.586 663.07446L1334.309 663.07446C 1334.309 663.07446 1314.898 632.2035 1289.52 604.08246C 1266.227 578.41846 1237.91 554.8915 1217.934 557.20746C 1194.594 559.9535 1201.883 590.5865 1201.883 590.5865C 1201.883 590.5865 1168.406 555.0315 1145.352 557.5395C 1114.242 560.94946 1123.715 599.62946 1123.715 599.62946C 1123.715 599.62946 1088.441 556.2625 1064.438 557.5395C 1026.75 559.7195 1036.172 605.83246 1046.68 637.8875C 1052.316 655.2155 1057.477 668.7585 1057.477 668.7585C 1057.477 668.7585 1053.734 667.7155 1045.734 666.6255C 1041.52 665.9615 1033.852 665.48846 1033.852 665.48846C 1033.852 665.48846 1018.18 637.7895 1005.68 621.2195C 993.086 604.4615 939.82 547.1255 908.383 558.6765C 879.359 569.1885 888.922 613.73846 905.828 649.0125C 930.445 700.4775 999.762 774.4815 1039.816 764.8205C 1081.242 754.6885 1040.762 679.0315 1040.762 679.0315C 1040.762 679.0315 1040.762 678.8405 1041.191 678.69946C 1042.09 678.3205 1044.172 678.08246 1049.191 679.0315C 1057.195 680.5905 1064.34 683.57446 1064.34 683.57446C 1064.34 683.57446 1106.008 770.83246 1152.027 828.02747C 1198.094 885.12946 1289.898 983.51245 1325.977 959.74646C 1334.828 953.9225 1330.805 933.75446 1318.922 909.3205C 1313.762 907.7115 1308.27 906.1025 1302.68 905.0165C 1310.586 919.5005 1315.891 931.52747 1317.453 940.0515C 1322.801 969.54346 1253.961 907.4265 1204.723 840.4815C 1155.578 773.4845 1126.035 712.78546 1126.035 712.78546C 1126.035 712.78546 1135.977 718.4695 1151.457 730.87146C 1167.602 743.9425 1189.762 764.3015 1213.957 789.3485C 1230.195 806.0125 1249.277 827.12946 1267.172 850.70746C 1272.477 850.98846 1277.684 851.5125 1282.797 852.41046C 1262.914 825.4735 1241.891 801.0395 1224.086 782.95746C 1204.582 763.0705 1183.273 741.7625 1164.766 726.1885C 1135.363 701.4225 1112.68 687.36346 1112.68 687.36346C 1112.68 687.36346 1069.551 600.6255 1092.938 594.9925C 1106.766 591.7705 1133.941 633.6255 1133.941 633.6255C 1133.941 633.6255 1169.402 687.7895 1190.758 712.2195C 1219.969 745.3595 1245.059 764.48846 1270.156 764.9145C 1284.785 765.24646 1293.355 749.6725 1293.355 749.6725L1293.355 749.6725L1300.27 760.2275L1300.27 760.2275L1342.738 760.2275C 1342.738 760.2275 1263.668 626.00446 1257.371 615.87146M1019.125 668.8055C 1018.32 669.0905 1009.184 673.20746 999.668 681.11346C 990.148 689.11346 985.273 698.25446 984.988 698.8675C 984.609 699.5785 984.184 699.0595 983.758 698.48846C 983.285 697.8755 981.578 696.5005 966.43 674.15247C 951.371 651.94946 928.176 606.1175 949.242 598.3525C 962.594 593.3835 985.086 616.91046 997.254 632.53546C 1008.617 647.16846 1019.172 665.48846 1019.789 666.91046C 1020.402 668.1415 1019.836 668.5675 1019.125 668.8055M1040.477 706.3015C 1044.41 716.4815 1049.379 736.5085 1038.965 744.3675C 1027.883 752.7975 999.574 733.1025 999.383 713.0245C 999.238 692.4305 1019.41 683.0555 1024.238 681.82446C 1026.984 681.0675 1027.883 681.11346 1029.305 683.3405C 1030.156 684.90247 1036.551 695.9815 1040.477 706.3015M1283.84 734.5675C 1284.691 736.12946 1285.07 737.45746 1285.07 737.45746C 1285.07 737.45746 1284.266 743.2315 1278.773 743.5165C 1272.238 743.8485 1263.289 742.4735 1239.902 716.57446C 1216.559 690.8205 1202.402 668.3285 1190.141 645.8875C 1176.695 621.41046 1171.344 603.1335 1179.063 598.4455C 1181.238 597.16846 1184.555 596.9775 1187.156 597.6885C 1192.367 598.8755 1198.285 603.7975 1207.328 614.16846C 1211.539 618.99646 1216.23 625.9065 1221.77 633.6255C 1237.203 654.7895 1276.074 721.16846 1283.84 734.5675M1375.168 928.3055C 1345.48 909.1335 1304.148 891.8525 1264.52 895.6845C 1254.484 885.2235 1243.785 873.2425 1232.941 860.1765C 1301.781 846.5905 1361.914 889.15247 1393.965 925.5165C 1413.945 948.1455 1423.746 968.41046 1423.746 968.41046C 1423.746 968.41046 1404.668 947.29346 1375.168 928.3055M1181.949 878.40247C 1149.473 895.1175 1125.75 915.5245 1100.941 928.1645C 1077.316 940.2895 1062.117 945.3055 1043.035 942.79346C 1039.863 942.37146 1035.129 940.90247 1035.129 940.90247C 1035.129 940.90247 1045.027 907.33246 1005.918 850.8485C 966.336 793.7035 930.445 793.98846 920.219 809.8485C 909.52 826.4655 923.297 860.2705 946.402 890.1955C 970.5 921.6805 1012.922 947.8175 1012.922 947.8175C 1012.922 947.8175 999.383 956.0515 966.145 937.3015C 933.762 918.8875 877.941 875.2315 826.238 801.5165C 774.582 727.9845 764.309 687.36346 756.828 655.5005C 749.348 623.6845 756.211 589.44946 791.578 589.44946C 827.043 589.44946 868.137 643.4735 879.738 662.1725C 901.234 697.1645 915.297 750.7115 885.988 743.32446C 871.5 739.7745 859.758 723.62946 852.375 708.2895C 844.797 692.4305 841.766 677.2315 841.766 677.2315C 841.766 677.2315 829.551 672.9225 813.074 660.5675C 796.691 648.3015 785.992 636.5125 785.992 636.5125C 785.992 636.5125 786.039 661.9385 806.352 703.2705C 826.711 744.5085 864.02 763.4455 885.09 765.19946C 904.168 766.7155 928.93 750.5705 907.957 690.8675C 886.938 631.2585 825.102 558.7705 760 557.87146C 700.012 556.9225 660.668 633.6255 744.141 767.4735C 836.465 915.33246 945.074 960.73846 980.352 965.7115C 1015.574 970.91846 1026.984 955.29346 1026.984 955.29346C 1026.984 955.29346 1056.48 968.9775 1093.934 966.4695C 1137.02 963.4845 1170.301 933.1375 1214.145 911.7815C 1202.688 900.6095 1191.797 889.15247 1181.949 878.40247M1021.777 936.4535C 1021.777 936.4535 996.59 926.3205 967.328 894.12146C 937.973 861.73846 921.023 825.5675 933.664 815.9535C 938.496 812.2625 949.621 811.6455 969.98 829.9225C 985.797 844.1725 1001.844 862.7345 1012.875 889.4845C 1025.898 921.4425 1021.777 936.0245 1021.777 936.4535" stroke="none" fill="#FFFFFF" fill-rule="nonzero" />
		</g>
	</g>
</g>
</svg>